<svg xmlns="http://www.w3.org/2000/svg" viewBox="0 0 24 24" role="img" aria-label="Excavator">
  <path fill="currentColor" d="M6.2 14.2h5.9c.4 0 .7.3.7.7v2.1h3.4c.4 0 .7.3.7.7v1.6H5.1a2.1 2.1 0 0 1-2.1-2.1v-.9c0-1.2 1-2.1 2.1-2.1h1.1Zm10.1-8.1 2.9 4.8c.2.4.1.9-.3 1.1l-1 .6a.8.8 0 0 1-1.1-.3l-2.3-3.8-3.5 2.1v3.6a.8.8 0 0 1-.8.8H8.8a.8.8 0 0 1-.8-.8v-4c0-.3.2-.6.4-.7l6.8-4.1c.4-.2.8-.1 1.1.2Z"/>
  <path fill="currentColor" d="M4.5 20.5c.6 0 1-.4 1-1s-.4-1-1-1-1 .4-1 1 .4 1 1 1Zm9.7 0c.6 0 1-.4 1-1s-.4-1-1-1-1 .4-1 1 .4 1 1 1Z"/>
</svg>

