<svg xmlns="http://www.w3.org/2000/svg" viewBox="0 0 24 24" role="img" aria-label="Customs">
  <path fill="currentColor" d="M12 2.4c.2 0 .3 0 .5.1l8 3.1c.4.2.7.6.7 1v6.1c0 5.1-3.3 8.7-8.3 10.7-.2.1-.4.1-.6 0C7.3 21.4 4 17.8 4 12.7V6.6c0-.4.3-.8.7-1l8-3.1c.1-.1.2-.1.3-.1ZM6 7.3v5.4c0 4.2 2.7 7.2 6 8.9 3.3-1.7 6-4.7 6-8.9V7.3l-6-2.3-6 2.3Z"/>
  <path fill="currentColor" d="M10.9 14.9 8.7 12.7c-.4-.4-.4-1 0-1.4.4-.4 1-.4 1.4 0l1.5 1.5 3.3-3.3c.4-.4 1-.4 1.4 0 .4.4.4 1 0 1.4l-4 4c-.4.4-1 .4-1.4 0Z"/>
</svg>

