<svg xmlns="http://www.w3.org/2000/svg" viewBox="0 0 24 24" role="img" aria-label="Lowbed trailer">
  <path fill="currentColor" d="M3.2 14.4c0-.5.4-.9.9-.9h13.6c.5 0 .9.4.9.9v2.8h.7c.5 0 .9.4.9.9v.6H2.3v-.6c0-.5.4-.9.9-.9h0v-2.8Zm15.4 2.8h-3.1v-1.6h3.1v1.6Z"/>
  <path fill="currentColor" d="M6.2 20.8c.7 0 1.2-.5 1.2-1.2s-.5-1.2-1.2-1.2S5 18.9 5 19.6s.5 1.2 1.2 1.2Zm9.8 0c.7 0 1.2-.5 1.2-1.2s-.5-1.2-1.2-1.2-1.2.5-1.2 1.2.5 1.2 1.2 1.2Z"/>
  <path fill="currentColor" d="M7.4 12.6a.9.9 0 0 1 .4-1.2l6.9-3.7c.4-.2.9 0 1.2.4l1.4 2.4c.2.4.1 1-.3 1.2-.4.2-1 .1-1.2-.3l-1-1.7-6.2 3.3c-.4.2-1 .1-1.2-.4Z"/>
</svg>

