<svg xmlns="http://www.w3.org/2000/svg" viewBox="0 0 24 24" role="img" aria-label="Truck">
  <path fill="currentColor" d="M3.5 6.8c0-.5.4-.9.9-.9h10.1c.5 0 .9.4.9.9v8.2h1.5V11c0-.5.4-.9.9-.9h2.6c.3 0 .6.2.8.4l1.2 1.9c.1.1.1.3.1.5v2.9c0 .5-.4.9-.9.9h-.8a2.2 2.2 0 0 1-4.4 0H9a2.2 2.2 0 0 1-4.4 0h-.2c-.5 0-.9-.4-.9-.9V6.8Zm16.3 8.2h1V13l-.8-1.3h-1.7v3.3Z"/>
  <path fill="currentColor" d="M6.8 19.5c.7 0 1.2-.5 1.2-1.2S7.5 17 6.8 17s-1.2.5-1.2 1.2.5 1.3 1.2 1.3Zm11 0c.7 0 1.2-.5 1.2-1.2S18.5 17 17.8 17s-1.2.5-1.2 1.2.5 1.3 1.2 1.3Z"/>
</svg>

